<svg width="18" height="15" viewBox="0 0 18 15" fill="none" xmlns="http://www.w3.org/2000/svg">
<path fill-rule="evenodd" clip-rule="evenodd" d="M13.1171 0C14.2346 0 15.3096 0.441667 16.1005 1.23417C16.8921 2.025 17.3346 3.09167 17.3346 4.20833V10.7917C17.3346 13.1167 15.443 15 13.1171 15H4.88464C2.5588 15 0.667969 13.1167 0.667969 10.7917V4.20833C0.667969 1.88333 2.55047 0 4.88464 0H13.1171ZM14.443 5.45L14.5096 5.38333C14.7088 5.14167 14.7088 4.79167 14.5005 4.55C14.3846 4.42583 14.2255 4.35 14.0596 4.33333C13.8846 4.32417 13.718 4.38333 13.5921 4.5L9.83464 7.5C9.3513 7.90083 8.6588 7.90083 8.16797 7.5L4.41797 4.5C4.1588 4.30833 3.80047 4.33333 3.58464 4.55833C3.35964 4.78333 3.33464 5.14167 3.52547 5.39167L3.63464 5.5L7.4263 8.45833C7.89297 8.825 8.4588 9.025 9.0513 9.025C9.64214 9.025 10.218 8.825 10.6838 8.45833L14.443 5.45Z" fill="#9E9E9E"/>
</svg>
