<svg width="18" height="15" viewBox="0 0 18 15" fill="none" xmlns="http://www.w3.org/2000/svg">
<path fill-rule="evenodd" clip-rule="evenodd" d="M7.16874 10.2105C7.68914 10.5633 8.32337 10.7766 8.99825 10.7766C10.7871 10.7766 12.2426 9.30803 12.2426 7.5031C12.2426 6.82215 12.0312 6.18222 11.6815 5.65714L10.7952 6.55141C10.9416 6.83035 11.0229 7.15852 11.0229 7.5031C11.0229 8.62708 10.1122 9.54595 8.99825 9.54595C8.65674 9.54595 8.3315 9.46391 8.05504 9.31623L7.16874 10.2105ZM14.3567 2.95795C15.5357 4.04091 16.5358 5.50126 17.2839 7.25697C17.3489 7.41285 17.3489 7.59334 17.2839 7.74102C15.5438 11.8267 12.4459 14.2716 8.99825 14.2716H8.99012C7.42081 14.2716 5.91654 13.7547 4.59117 12.8112L3.01372 14.4029C2.89176 14.5259 2.73726 14.5834 2.58277 14.5834C2.42828 14.5834 2.26566 14.5259 2.15182 14.4029C1.94854 14.1978 1.91602 13.8696 2.07864 13.6317L2.10303 13.5988L14.129 1.46478L14.129 1.46477C14.1453 1.44837 14.1615 1.43196 14.1697 1.41555L14.1697 1.41555C14.1859 1.39914 14.2022 1.38273 14.2103 1.36633L14.9746 0.595129C15.2186 0.357206 15.6007 0.357206 15.8366 0.595129C16.0805 0.833052 16.0805 1.22686 15.8366 1.46478L14.3567 2.95795ZM5.74799 7.5063C5.74799 7.71961 5.77238 7.93292 5.8049 8.12982L2.79638 11.1654C1.98326 10.2137 1.27585 9.0651 0.714803 7.74422C0.649753 7.59654 0.649753 7.41605 0.714803 7.26017C2.45487 3.17446 5.55284 0.737801 8.99232 0.737801H9.00045C10.1632 0.737801 11.2934 1.01674 12.3342 1.54182L9.61841 4.28203C9.42327 4.24921 9.21186 4.2246 9.00045 4.2246C7.20346 4.2246 5.74799 5.69316 5.74799 7.5063Z" fill="#9E9E9E"/>
</svg>
