<svg width="40" height="68" viewBox="0 0 40 68" fill="none" xmlns="http://www.w3.org/2000/svg">
<path d="M20 0.666687C8.97 0.666687 0 9.63669 0 20.6667C0 30.5567 7.22333 38.7734 16.6667 40.3667V50.6667H6.66667V57.3334H16.6667V67.2934H23.3333V57.3334H33.3333V50.6667H23.3333V40.3667C32.7767 38.77 40 30.5567 40 20.6667C40 9.63669 31.03 0.666687 20 0.666687ZM20 34C12.6467 34 6.66667 28.02 6.66667 20.6667C6.66667 13.3134 12.6467 7.33335 20 7.33335C27.3533 7.33335 33.3333 13.3134 33.3333 20.6667C33.3333 28.02 27.3533 34 20 34Z" fill="white"/>
</svg>
