<svg width="24" height="25" viewBox="0 0 24 25" fill="none" xmlns="http://www.w3.org/2000/svg">
<g clip-path="url(#clip0_1253_10968)">
<path d="M23.5088 12.4745C23.5088 11.4913 23.4304 10.7738 23.2608 10.0297H12.2305V14.4676H18.705C18.5745 15.5705 17.8696 17.2315 16.3032 18.3476L16.2812 18.4962L19.7688 21.2464L20.0104 21.2709C22.2295 19.1847 23.5088 16.1153 23.5088 12.4745Z" fill="#4285F4"/>
<path d="M12.2296 24.1676C15.4016 24.1676 18.0645 23.1045 20.0095 21.2709L16.3023 18.3476C15.3102 19.0518 13.9787 19.5434 12.2296 19.5434C9.1228 19.5434 6.48598 17.4574 5.54603 14.574L5.40825 14.5859L1.7818 17.4427L1.73438 17.5769C3.6663 21.4834 7.63462 24.1676 12.2296 24.1676Z" fill="#34A853"/>
<path d="M5.54719 14.5739C5.29917 13.8298 5.15564 13.0325 5.15564 12.2087C5.15564 11.3849 5.29917 10.5876 5.53414 9.84354L5.52757 9.68507L1.85568 6.78235L1.73554 6.84052C0.939305 8.46162 0.482422 10.282 0.482422 12.2087C0.482422 14.1354 0.939305 15.9558 1.73554 17.5769L5.54719 14.5739Z" fill="#FBBC05"/>
<path d="M12.2295 4.87403C14.4356 4.87403 15.9237 5.84401 16.7722 6.65461L20.0878 3.35928C18.0515 1.4326 15.4015 0.25 12.2295 0.25C7.63462 0.25 3.6663 2.93406 1.73438 6.84056L5.53297 9.84359C6.48597 6.9602 9.12279 4.87403 12.2295 4.87403Z" fill="#EB4335"/>
</g>
<defs>
<clipPath id="clip0_1253_10968">
<rect width="23.04" height="24" fill="white" transform="translate(0.480469 0.25)"/>
</clipPath>
</defs>
</svg>
