<svg width="16" height="17" viewBox="0 0 16 17" fill="none" xmlns="http://www.w3.org/2000/svg">
<path fill-rule="evenodd" clip-rule="evenodd" d="M12.6016 4.66336V5.94114C14.0369 6.38915 15.0827 7.68847 15.0827 9.24036V13.3544C15.0827 15.2757 13.4899 16.8334 11.5262 16.8334H4.47335C2.50881 16.8334 0.916016 15.2757 0.916016 13.3544V9.24036C0.916016 7.68847 1.96264 6.38915 3.39709 5.94114V4.66336C3.40556 2.17901 5.46324 0.166687 7.98665 0.166687C10.5439 0.166687 12.6016 2.17901 12.6016 4.66336ZM8.00358 1.61589C9.72255 1.61589 11.1197 2.98228 11.1197 4.66336V5.76144H4.87896V4.6468C4.88742 2.974 6.28462 1.61589 8.00358 1.61589ZM8.74028 12.2125C8.74028 12.6182 8.41004 12.9412 7.99511 12.9412C7.58866 12.9412 7.25841 12.6182 7.25841 12.2125V10.374C7.25841 9.97655 7.58866 9.65359 7.99511 9.65359C8.41004 9.65359 8.74028 9.97655 8.74028 10.374V12.2125Z" fill="#9E9E9E"/>
</svg>
