<svg width="134" height="101" viewBox="0 0 134 101" fill="none" xmlns="http://www.w3.org/2000/svg">
<path fill-rule="evenodd" clip-rule="evenodd" d="M66.3698 0.333252H27.755C11.6077 0.333252 0.333984 11.4605 0.333984 27.4068V73.2625C0.333984 89.2088 11.6077 100.336 27.755 100.336H66.3698C82.5171 100.336 93.7908 89.2088 93.7908 73.2625V27.4068C93.7908 11.4605 82.5171 0.333252 66.3698 0.333252ZM63.9414 40.3437C63.9414 41.1325 62.7802 42.951 60.4577 45.7993C58.1353 48.6476 54.6516 52.5037 50.0067 57.3677H63.8757C64.3577 57.3677 64.752 58.025 65.0588 59.3396C65.4093 60.6103 65.5846 62.4289 65.5846 64.7951C65.5846 67.1176 65.2998 69.1771 64.7301 70.9737C64.2043 72.7703 63.4813 73.6686 62.5611 73.6686H30.5508C29.28 73.6686 28.3598 72.3978 27.7901 69.8563C27.2643 67.3148 27.0014 64.5541 27.0014 61.5744C27.0014 60.9171 28.2283 59.1205 30.6822 56.1846C33.1361 53.2486 36.8389 49.1515 41.7905 43.8931H29.039C27.8559 43.8931 27.2643 41.987 27.2643 38.1747C27.2643 35.5017 27.5491 32.982 28.1188 30.6158C28.6884 28.2057 29.4115 27.0007 30.2879 27.0007H60.5892C62.824 27.0007 63.9414 31.4484 63.9414 40.3437Z" fill="url(#paint0_linear_1253_12878)"/>
<path d="M120.053 16.1923C122.98 14.7032 126.414 14.8589 129.207 16.6187C132.001 18.3717 133.667 21.4175 133.667 24.7475V75.9232C133.667 79.26 132.001 82.299 129.207 84.052C127.68 85.0064 125.974 85.4937 124.254 85.4937C122.82 85.4937 121.387 85.1553 120.047 84.4717L110.173 79.4901C106.52 77.6356 104.253 73.913 104.253 69.7775V30.8864C104.253 26.7442 106.52 23.0216 110.173 21.1806L120.053 16.1923Z" fill="url(#paint1_linear_1253_12878)"/>
<defs>
<linearGradient id="paint0_linear_1253_12878" x1="133.667" y1="100.336" x2="-15.9637" y2="42.4921" gradientUnits="userSpaceOnUse">
<stop stop-color="#FF4D67"/>
<stop offset="1" stop-color="#FF8395"/>
</linearGradient>
<linearGradient id="paint1_linear_1253_12878" x1="133.667" y1="100.336" x2="-15.9637" y2="42.4921" gradientUnits="userSpaceOnUse">
<stop stop-color="#FF4D67"/>
<stop offset="1" stop-color="#FF8395"/>
</linearGradient>
</defs>
</svg>
