<svg width="28" height="25" viewBox="0 0 28 25" fill="none" xmlns="http://www.w3.org/2000/svg">
<path fill-rule="evenodd" clip-rule="evenodd" d="M20.5866 0.666748C22.3746 0.666748 24.0946 1.37341 25.36 2.64141C26.6266 3.90675 27.3346 5.61342 27.3346 7.40008V17.9334C27.3346 21.6534 24.308 24.6667 20.5866 24.6667H7.41463C3.6933 24.6667 0.667969 21.6534 0.667969 17.9334V7.40008C0.667969 3.68008 3.67997 0.666748 7.41463 0.666748H20.5866ZM22.708 9.38675L22.8146 9.28008C23.1333 8.89341 23.1333 8.33341 22.8 7.94675C22.6146 7.74808 22.36 7.62675 22.0946 7.60008C21.8146 7.58541 21.548 7.68008 21.3466 7.86675L15.3346 12.6667C14.5613 13.3081 13.4533 13.3081 12.668 12.6667L6.66797 7.86675C6.2533 7.56008 5.67997 7.60008 5.33464 7.96008C4.97464 8.32008 4.93464 8.89341 5.23997 9.29342L5.41464 9.46675L11.4813 14.2001C12.228 14.7867 13.1333 15.1067 14.0813 15.1067C15.0266 15.1067 15.948 14.7867 16.6933 14.2001L22.708 9.38675Z" fill="url(#paint0_linear_1253_13466)"/>
<defs>
<linearGradient id="paint0_linear_1253_13466" x1="27.3346" y1="24.6667" x2="-3.82943" y2="14.627" gradientUnits="userSpaceOnUse">
<stop stop-color="#FF4D67"/>
<stop offset="1" stop-color="#FF8395"/>
</linearGradient>
</defs>
</svg>
