<svg width="61" height="61" viewBox="0 0 61 61" fill="none" xmlns="http://www.w3.org/2000/svg">
<path d="M60.666 23.6666V0.333313H37.3327L46.6427 9.64331L32.236 24.05C28.8621 21.6332 24.8162 20.3335 20.666 20.3333C9.63601 20.3333 0.666016 29.3033 0.666016 40.3333C0.666016 51.3633 9.63601 60.3333 20.666 60.3333C31.696 60.3333 40.666 51.3633 40.666 40.3333C40.666 36.02 39.2793 32.0333 36.9493 28.7633L51.356 14.3566L60.666 23.6666ZM20.666 53.6666C13.3127 53.6666 7.33268 47.6866 7.33268 40.3333C7.33268 32.98 13.3127 27 20.666 27C28.0193 27 33.9993 32.98 33.9993 40.3333C33.9993 47.6866 28.0193 53.6666 20.666 53.6666Z" fill="white"/>
</svg>
